<?xml version="1.0" encoding="UTF-8" standalone="no"?>
<!-- Generator: Adobe Illustrator 14.0.0, SVG Export Plug-In . SVG Version: 6.00 Build 43363)  -->

<svg
   xmlns:dc="http://purl.org/dc/elements/1.1/"
   xmlns:cc="http://creativecommons.org/ns#"
   xmlns:rdf="http://www.w3.org/1999/02/22-rdf-syntax-ns#"
   xmlns:svg="http://www.w3.org/2000/svg"
   xmlns="http://www.w3.org/2000/svg"
   xmlns:sodipodi="http://sodipodi.sourceforge.net/DTD/sodipodi-0.dtd"
   xmlns:inkscape="http://www.inkscape.org/namespaces/inkscape"
   version="1.1"
   id="Layer_2"
   x="0px"
   y="0px"
   width="215.99872"
   height="216"
   viewBox="0 0 215.99871 216"
   enable-background="new 0 0 474.088 864"
   xml:space="preserve"
   inkscape:version="0.48.4 r9939"
   sodipodi:docname="Hot_Air_Balloons.svg"><metadata
     id="metadata76"><rdf:RDF><cc:Work
         rdf:about=""><dc:format>image/svg+xml</dc:format><dc:type
           rdf:resource="http://purl.org/dc/dcmitype/StillImage" /></cc:Work></rdf:RDF></metadata><defs
     id="defs74" /><sodipodi:namedview
     pagecolor="#ffffff"
     bordercolor="#666666"
     borderopacity="1"
     objecttolerance="10"
     gridtolerance="10"
     guidetolerance="10"
     inkscape:pageopacity="0"
     inkscape:pageshadow="2"
     inkscape:window-width="1920"
     inkscape:window-height="1021"
     id="namedview72"
     showgrid="false"
     fit-margin-top="0"
     fit-margin-left="0"
     fit-margin-right="0"
     fit-margin-bottom="0"
     inkscape:zoom="0.27314815"
     inkscape:cx="207.09959"
     inkscape:cy="-225.7"
     inkscape:window-x="0"
     inkscape:window-y="27"
     inkscape:window-maximized="1"
     inkscape:current-layer="Layer_2" /><g
     id="g3"
     transform="matrix(1,0,0,1.1370354,-37.266448,-18.570395)"><path
       d="m 192.896,19.289 c -22.586,0 -40.949,20.202 -40.949,38.013 0,17.816 15.514,32.967 29.012,46.464 6.705,6.699 8.451,18.181 8.451,18.181 v 3.972 c -2.705,0.231 -4.567,0.733 -4.567,1.306 0,1.652 2.821,4.203 2.821,7.784 0,0.683 2.341,1.234 5.232,1.234 2.893,0 5.234,-0.551 5.234,-1.234 0,-3.581 2.82,-6.132 2.82,-7.784 0,-0.573 -1.861,-1.075 -4.566,-1.306 v -3.972 c 0,0 1.746,-11.481 8.451,-18.181 13.497,-13.497 29.011,-28.647 29.011,-46.464 0.001,-17.812 -18.362,-38.013 -40.95,-38.013 z m 1.643,106.514 c -0.529,-0.017 -1.08,-0.028 -1.643,-0.028 -0.561,0 -1.111,0.011 -1.641,0.028 v -3.096 c 0.65,0.088 1.272,0.066 1.641,0.066 0.369,0 0.992,0.022 1.643,-0.066 v 3.096 z"
       id="path5"
       inkscape:connector-curvature="0"
       style="fill:#dcd2c3" /><path
       d="m 208.957,22.787 c -4.646,-2.087 -9.742,-3.333 -15.08,-3.471 -0.326,-0.016 -0.652,-0.027 -0.98,-0.027 -0.327,0 -0.652,0.011 -0.979,0.027 -5.338,0.138 -10.434,1.384 -15.08,3.471 -14.621,6.539 -24.891,21.199 -24.891,34.515 0,15.546 11.813,29.061 23.789,41.22 1.746,1.773 3.504,3.525 5.223,5.244 6.705,6.699 8.451,18.181 8.451,18.181 0.766,0.765 2.171,0.826 3.047,0.826 0.076,0 0.148,0 0.215,0 0.049,0 0.093,0 0.137,0 0.039,0.005 0.066,0 0.088,0 0.028,0 0.056,0 0.089,0 0.033,0 0.066,0 0.099,0 0.078,0 0.16,0 0.254,0 0.876,0 2.281,-0.061 3.047,-0.826 0,0 1.746,-11.481 8.451,-18.181 1.719,-1.719 3.477,-3.471 5.223,-5.244 11.977,-12.159 23.788,-25.673 23.788,-41.22 -0.001,-13.316 -10.27,-27.976 -24.891,-34.515 z m -45.309,34.515 c 0,-12.908 6.887,-27.072 16.82,-33.887 1.416,0.199 2.941,0.364 4.556,0.491 -5.735,6.991 -9.68,20.792 -9.68,33.396 0,17.315 6.28,32.107 11.938,45.313 -1.619,-0.187 -3.041,-0.462 -4.308,-0.799 -9.283,-13.002 -19.326,-27.551 -19.326,-44.514 z m 29.248,45.61 c -0.633,0 -1.244,-0.011 -1.828,-0.028 -1.896,-13.271 -4.021,-28.151 -4.021,-45.583 0,-12.451 1.283,-26.069 3.156,-33.138 0.882,0.028 1.785,0.039 2.693,0.039 0.91,0 1.813,-0.011 2.694,-0.039 1.874,7.068 3.157,20.687 3.157,33.138 0,17.431 -2.127,32.312 -4.021,45.583 -0.583,0.017 -1.195,0.028 -1.83,0.028 z m 9.923,-1.097 c -1.268,0.336 -2.688,0.612 -4.308,0.799 5.657,-13.205 11.938,-27.997 11.938,-45.313 0,-12.605 -3.944,-26.406 -9.68,-33.396 1.614,-0.127 3.141,-0.292 4.557,-0.491 9.933,6.815 16.818,20.979 16.818,33.887 0.001,16.964 -10.041,31.513 -19.325,44.514 z"
       id="path7"
       inkscape:connector-curvature="0"
       style="fill:#f59293" /><g
       id="g9"><g
         id="XMLID_2_"><path
           d="m 221.31,65.78 c -0.5,2.63 -1.22,5.2 -2.12,7.71 -1.18,-0.56 -2.35,-1.05 -3.52,-1.45 -1.85,-0.62 -3.7,-1.01 -5.63,-1.01 -0.29,0 -0.58,0.01 -0.88,0.03 0.38,-2.07 0.689,-4.17 0.91,-6.31 1.18,-0.17 2.35,-0.26 3.52,-0.26 2.639,0 5.23,0.43 7.72,1.29 z"
           id="path12"
           inkscape:connector-curvature="0"
           style="fill:#d4cbbd" /><path
           d="m 196.62,88.98 c -0.021,0 -0.03,0 -0.05,0 -0.69,0 -1.37,-0.07 -2.021,-0.25 -1.87,-0.5 -3.34,-1.66 -4.35,-3.02 -1.021,-1.36 -1.62,-2.94 -1.79,-4.48 -0.01,-0.12 -0.01,-0.23 -0.021,-0.34 -0.04,0.01 -0.069,0.02 -0.109,0.03 -0.19,-1.86 -0.36,-3.75 -0.511,-5.68 0.87,-0.29 1.74,-0.58 2.62,-0.85 0.87,-1.23 1.931,-2.35 3.13,-3.28 1.54,-1.2 3.2,-2.2 4.96,-3.04 -0.358,7.42 -1.048,14.36 -1.858,20.91 z"
           id="path14"
           inkscape:connector-curvature="0"
           style="fill:#d4cbbd" /><path
           d="m 187.77,75.24 c 0.15,1.93 0.32,3.82 0.511,5.68 -2.74,0.87 -5.601,1.74 -8.53,2.33 -0.57,-1.74 -1.1,-3.52 -1.57,-5.32 1.521,-0.24 3.05,-0.62 4.601,-1.07 1.648,-0.49 3.318,-1.06 4.988,-1.62 z"
           id="path16"
           inkscape:connector-curvature="0"
           style="fill:#ec8d8e" /><path
           d="m 200.07,73.8 c 1.649,0.35 3.26,0.97 4.67,2 0.979,0.73 1.739,1.51 2.26,2.37 0.14,0.23 0.26,0.46 0.36,0.7 -0.641,2.32 -1.351,4.59 -2.131,6.82 -0.46,0.4 -0.96,0.76 -1.489,1.09 -2.15,1.34 -4.74,2.18 -7.12,2.2 0.81,-6.55 1.5,-13.49 1.859,-20.91 3.58,-1.71 7.5,-2.72 11.341,-3.29 0.08,-0.01 0.17,-0.02 0.25,-0.03 -0.221,2.14 -0.53,4.24 -0.91,6.31 -0.45,0.03 -0.91,0.08 -1.38,0.15 -1.92,0.3 -3.971,0.79 -5.75,1.55 -0.71,0.3 -1.36,0.66 -1.96,1.04 z"
           id="path18"
           inkscape:connector-curvature="0"
           style="fill:#ec8d8e" /><path
           d="m 231.189,70.23 c -0.09,0.24 -0.189,0.48 -0.3,0.72 -0.1,0.25 -0.21,0.49 -0.31,0.73 -0.021,0.05 -0.04,0.1 -0.07,0.14 -0.17,0.39 -0.35,0.78 -0.55,1.17 -0.15,0.33 -0.31,0.65 -0.48,0.98 -0.14,0.27 -0.27,0.53 -0.42,0.8 -0.13,0.25 -0.27,0.51 -0.409,0.76 -0.141,0.25 -0.28,0.5 -0.421,0.75 -0.149,0.25 -0.29,0.49 -0.439,0.74 -0.09,0.16 -0.19,0.32 -0.29,0.48 -1.17,-0.49 -2.311,-1.04 -3.42,-1.59 -1.66,-0.83 -3.28,-1.68 -4.891,-2.42 0.9,-2.51 1.62,-5.08 2.12,-7.71 0.811,0.27 1.62,0.59 2.41,0.96 2.51,1.16 4.981,2.43 7.47,3.49 z"
           id="path20"
           inkscape:connector-curvature="0"
           style="fill:#ec8d8e" /></g></g><g
       id="g22"><g
         id="XMLID_1_"><path
           d="m 187.28,102.61 0.14,0.04 c -0.62,2.26 -1.38,4.47 -2.26,6.65 -0.021,0.04 -0.03,0.09 -0.05,0.13 -0.78,-1.42 -1.681,-2.8 -2.73,-4.08 0.4,-1.13 0.76,-2.27 1.09,-3.41 1.14,0.28 2.4,0.51 3.81,0.67 z"
           id="path25"
           inkscape:connector-curvature="0"
           style="fill:#ec8d8e" /><path
           d="m 184.7,96.5 c 0.859,2.08 1.729,4.11 2.58,6.11 -1.41,-0.16 -2.67,-0.39 -3.811,-0.67 0.51,-1.79 0.921,-3.61 1.231,-5.44 z"
           id="path27"
           inkscape:connector-curvature="0"
           style="fill:#d4cbbd" /><path
           d="m 166.04,43.61 c 3.479,2.91 6.64,6.12 9.439,9.54 -0.09,1.39 -0.14,2.78 -0.14,4.15 0,0.78 0.01,1.56 0.04,2.33 -2.97,-4.25 -6.53,-8.24 -10.57,-11.8 0.341,-1.42 0.751,-2.83 1.231,-4.22 z"
           id="path29"
           inkscape:connector-curvature="0"
           style="fill:#d4cbbd" /><path
           d="m 187.939,77.25 c 0.381,4.53 0.87,8.88 1.41,13.06 -0.14,4.23 -0.819,8.34 -1.93,12.34 l -0.14,-0.04 c -0.851,-2 -1.721,-4.03 -2.58,-6.11 0.45,-2.59 0.68,-5.22 0.68,-7.89 0,-9.73 -3.68,-19.95 -10,-28.98 -0.03,-0.77 -0.04,-1.55 -0.04,-2.33 0,-1.37 0.05,-2.76 0.14,-4.15 3.511,4.28 6.44,8.89 8.71,13.69 1.601,3.39 2.861,6.88 3.75,10.41 z"
           id="path31"
           inkscape:connector-curvature="0"
           style="fill:#ec8d8e" /><path
           d="m 166.04,43.61 c -0.48,1.39 -0.89,2.8 -1.23,4.22 -2.609,-2.31 -5.43,-4.43 -8.42,-6.32 0.07,-0.16 0.16,-0.31 0.25,-0.46 0.23,-0.41 0.471,-0.8 0.71,-1.2 0.011,-0.02 0.021,-0.03 0.03,-0.05 0.24,-0.38 0.48,-0.76 0.73,-1.13 0.119,-0.19 0.25,-0.38 0.38,-0.56 h 0.01 c 0.75,0.47 1.479,0.96 2.21,1.46 1.85,1.27 3.63,2.62 5.33,4.04 z"
           id="path33"
           inkscape:connector-curvature="0"
           style="fill:#ec8d8e" /></g></g><path
       d="m 192.896,128.672 c -4.451,0 -8.054,-0.65 -8.054,-1.448 0,1.652 2.821,4.203 2.821,7.784 0,0.683 2.341,1.234 5.232,1.234 2.893,0 5.234,-0.551 5.234,-1.234 0,-3.581 2.82,-6.132 2.82,-7.784 0.002,0.798 -3.6,1.448 -8.053,1.448 z"
       id="path35"
       inkscape:connector-curvature="0"
       style="fill:#ed5f6d" /><path
       d="m 136.408,76.597 c 3.623,3.554 11.23,5.948 15.044,2.023 2.605,-2.683 0.871,-6.863 -3.758,-7.831 -1.271,-0.266 -2.933,-0.375 -3.892,0.431 -0.889,0.747 0.273,1.681 1.238,1.898 1.646,0.371 2.223,1.891 1.686,3.136 -0.703,1.632 -1.449,1.843 -3.389,0.734 -3.357,-1.918 -3.607,-5.44 -1.691,-7.732 1.619,-1.935 4.08,-2.232 6.744,-1.473 3.289,0.938 6.343,2.415 9.559,3.482 -0.067,1.243 0.162,2.563 0.792,3.92 1.716,3.701 5.521,6.003 9.931,6.866 7.109,1.39 14.229,-0.996 20.904,-3.111 0.137,-0.043 0.288,-0.081 0.434,-0.12 -0.141,0.72 -0.189,1.467 -0.105,2.242 0.271,2.523 2.039,5.407 5.036,6.223 5.137,1.398 16.253,-4.867 8.907,-10.274 -2.033,-1.496 -4.641,-2.058 -7.273,-2.042 2.356,-3.223 6.966,-4.604 10.969,-5.242 9.759,-1.553 16.98,6.518 26.023,8.083 5.543,0.96 11.634,-0.026 16.043,-3.586 2.799,-2.259 4.783,-6.471 2.94,-9.107 -4.772,-6.827 -18.007,2.681 -11.587,8.91 -6.504,0.065 -12.24,-3.334 -17.868,-5.928 -4.121,-1.9 -8.49,-2.517 -13.056,-1.838 -5.551,0.826 -11.206,2.599 -15.596,6.027 -1.221,0.954 -2.313,2.125 -3.122,3.376 -6.646,2.039 -13.476,5.227 -20.418,3.571 -3.675,-0.876 -6.621,-3.447 -7.171,-6.73 4.124,0.313 10.621,-0.153 12.505,-3.931 1.593,-3.193 -0.356,-5.823 -3.691,-6.53 -5.338,-1.13 -10.886,1.23 -13.732,6.038 -3.647,-1.31 -7.151,-2.904 -11.074,-3.287 -3.874,-0.378 -8.368,-0.09 -11.03,2.599 -2.373,2.397 -3.343,6.219 -0.302,9.203 z m 109.955,-3.621 c -0.658,0.235 -1.305,0.424 -1.941,0.577 1.289,-0.989 2.182,-2.447 1.333,-3.007 -1.212,-0.798 -3.622,-3.804 -0.795,-3.875 1.026,-0.026 1.935,0.471 2.537,1.15 1.409,1.585 1.607,4.176 -1.134,5.155 z m -51.096,5.293 c 2.228,0.18 4.251,1.004 5.146,3.11 0.658,1.545 0.301,4.018 -2.091,2.589 -2.056,-1.228 -3.204,-3.532 -3.055,-5.699 z m -28.063,-8.415 c -1.13,0.006 -2.244,-0.121 -3.345,-0.328 0.658,-2.804 2.637,-5.846 5.915,-4.818 1.52,0.477 2.337,1.786 1.715,3.267 -0.644,1.535 -2.647,1.869 -4.285,1.879 z"
       id="path37"
       inkscape:connector-curvature="0"
       style="fill:#e5c9a4" /><path
       d="m 137.691,76.348 c 2.883,2.941 9.685,5.147 12.422,1.962 2.254,-2.624 0.998,-6.067 -3.076,-6.935 -1.075,-0.229 -3.214,0.747 -1.326,1.165 4.755,1.052 2.534,8.311 -3.377,4.898 -3.656,-2.111 -4.281,-5.881 -2.094,-8.439 2.074,-2.426 5.448,-2.749 8.797,-1.807 3.574,1.007 6.875,2.657 10.395,3.712 -0.135,1.337 0.068,2.748 0.731,4.15 1.646,3.475 5.268,5.583 9.39,6.363 6.729,1.274 13.439,-1.106 19.746,-3.101 0.675,-0.213 1.457,-0.391 2.262,-0.539 -0.285,0.95 -0.395,1.956 -0.271,3.013 0.27,2.303 1.948,5.014 4.693,5.755 4.867,1.315 12.492,-4.281 6.726,-8.824 -2.126,-1.675 -5.056,-2.106 -7.871,-1.917 2.427,-4.273 8.216,-6.115 13.006,-6.89 5.188,-0.839 9.603,0.259 14.12,2.683 3.9,2.093 7.811,4.561 12.615,5.252 4.588,0.66 10.611,0.194 14.5,-3.069 2.475,-2.076 3.936,-5.551 2.354,-7.798 -4.246,-6.035 -15.353,2.577 -8.97,7.402 0.775,0.586 2.972,-1.372 2.207,-1.886 -2.064,-1.387 -3.729,-5.738 0.924,-5.882 1.171,-0.036 2.235,0.441 2.943,1.222 2.154,2.38 1.113,5.837 -2.592,7.139 -8.581,3.015 -16.379,-1.522 -23.819,-5.012 -3.868,-1.814 -8.038,-2.513 -12.362,-1.89 -5.125,0.738 -10.398,2.309 -14.438,5.49 -1.273,1.003 -2.354,2.253 -3.082,3.591 -0.313,0.063 -0.629,0.125 -0.923,0.206 -6.819,1.874 -14.046,5.29 -21.28,3.513 -4.247,-1.043 -7.704,-4.177 -7.787,-8.133 -0.002,-0.051 0,-0.104 0,-0.156 0.603,0.107 1.211,0.191 1.829,0.239 3.526,0.275 9.248,-0.014 10.938,-3.318 1.444,-2.827 -0.266,-5.11 -3.254,-5.814 -5.424,-1.279 -10.568,2.017 -12.014,6.634 -1.515,-0.473 -3.012,-1.044 -4.521,-1.646 -2.477,-0.988 -5.119,-1.967 -7.808,-2.235 -3.417,-0.34 -7.162,0.039 -9.452,2.398 -2.122,2.191 -3.048,5.68 -0.281,8.504 z m 56.438,1.118 c 3.168,-0.173 6.347,0.476 7.604,3.36 1.121,2.573 -1.356,5.798 -4.638,3.807 -2.56,-1.553 -3.668,-4.583 -2.966,-7.167 z m -31.72,-7.429 c 0.726,-3.674 3.767,-7.324 8.166,-5.966 1.769,0.546 2.953,2.02 2.219,3.821 -0.843,2.068 -3.572,2.646 -5.799,2.654 -1.57,0.006 -3.095,-0.187 -4.586,-0.509 z"
       id="path39"
       inkscape:connector-curvature="0"
       style="fill:#f7ecbf" /><path
       d="m 124.326,31.934 c -33.676,0 -61.051,30.119 -61.051,56.674 0,26.562 23.129,49.149 43.252,69.273 9.996,9.987 12.6,27.104 12.6,27.104 v 5.922 c -4.033,0.345 -6.809,1.093 -6.809,1.947 0,2.464 4.205,6.267 4.205,11.605 0,1.019 3.49,1.84 7.803,1.84 4.313,0 7.803,-0.821 7.803,-1.84 0,-5.339 4.205,-9.142 4.205,-11.605 0,-0.854 -2.775,-1.603 -6.809,-1.947 v -5.922 c 0,0 2.604,-17.117 12.6,-27.104 20.123,-20.124 43.253,-42.711 43.253,-69.273 0,-26.555 -27.376,-56.674 -61.052,-56.674 z m 2.448,158.801 c -0.79,-0.025 -1.61,-0.041 -2.448,-0.041 -0.838,0 -1.658,0.016 -2.447,0.041 v -4.616 c 0.969,0.132 1.896,0.099 2.447,0.099 0.551,0 1.479,0.033 2.448,-0.099 v 4.616 z"
       id="path41"
       inkscape:connector-curvature="0"
       style="fill:#f7ecbf" /><path
       d="m 148.27,37.15 c -6.928,-3.112 -14.523,-4.969 -22.483,-5.175 -0.485,-0.024 -0.972,-0.041 -1.46,-0.041 -0.488,0 -0.975,0.017 -1.459,0.041 -7.96,0.206 -15.556,2.063 -22.484,5.175 -21.799,9.749 -37.107,31.605 -37.107,51.458 0,23.178 17.609,43.326 35.465,61.454 2.604,2.644 5.225,5.256 7.787,7.819 9.996,9.987 12.6,27.104 12.6,27.104 1.142,1.142 3.236,1.232 4.543,1.232 0.114,0 0.221,0 0.32,0 0.073,0 0.139,0 0.205,0 0.057,0.008 0.098,0 0.131,0 0.041,0 0.082,0 0.132,0 0.049,0 0.099,0 0.147,0 0.115,0 0.238,0 0.378,0 1.306,0 3.401,-0.091 4.542,-1.232 0,0 2.604,-17.117 12.6,-27.104 2.563,-2.563 5.184,-5.175 7.787,-7.819 C 167.769,131.934 185.38,111.786 185.38,88.608 185.378,68.755 170.068,46.899 148.27,37.15 z M 80.721,88.608 c 0,-19.245 10.268,-40.362 25.076,-50.522 2.11,0.296 4.387,0.542 6.793,0.731 -8.551,10.423 -14.432,30.999 -14.432,49.791 0,25.815 9.363,47.869 17.799,67.556 -2.415,-0.279 -4.534,-0.689 -6.423,-1.191 C 95.693,135.589 80.721,113.897 80.721,88.608 z m 43.605,67.999 c -0.945,0 -1.855,-0.017 -2.727,-0.04 -2.825,-19.787 -5.996,-41.972 -5.996,-67.959 0,-18.563 1.914,-38.867 4.707,-49.405 1.313,0.041 2.66,0.058 4.016,0.058 1.356,0 2.703,-0.017 4.016,-0.058 2.793,10.538 4.707,30.842 4.707,49.405 0,25.988 -3.17,48.173 -5.995,67.959 -0.871,0.024 -1.783,0.04 -2.728,0.04 z m 14.793,-1.634 c -1.889,0.502 -4.008,0.912 -6.423,1.191 8.435,-19.688 17.799,-41.741 17.799,-67.556 0,-18.792 -5.881,-39.368 -14.432,-49.791 2.406,-0.189 4.683,-0.435 6.792,-0.731 14.81,10.16 25.076,31.277 25.076,50.522 10e-4,25.289 -14.972,46.981 -28.812,66.365 z"
       id="path43"
       inkscape:connector-curvature="0"
       style="fill:#bbd5c1" /><g
       id="g45"><g
         id="XMLID_3_"><path
           d="m 98.68,99.15 c 0.271,2.81 0.641,5.56 1.101,8.28 -2.29,0.19 -4.5,0.72 -6.7,1.46 -2.72,0.91 -5.391,2.16 -8.08,3.52 -1.19,-3.36 -2.16,-6.79 -2.88,-10.29 4.569,-2.03 9.359,-3.05 14.3,-3.05 0.749,0 1.499,0.02 2.259,0.08 z"
           id="path48"
           inkscape:connector-curvature="0"
           style="fill:#efe4b9" /><path
           d="m 130.54,113.71 c 0.51,0.16 1.01,0.32 1.52,0.48 -0.399,5.32 -0.899,10.46 -1.46,15.46 -1.42,1.87 -3.439,3.42 -5.989,4.11 -0.891,0.24 -1.841,0.35 -2.82,0.35 -1.061,0 -2.16,-0.13 -3.271,-0.36 -0.29,-2.41 -0.569,-4.85 -0.819,-7.33 0.18,-0.06 0.42,-0.17 0.71,-0.34 2.04,-1.21 3.37,-3.32 3.729,-5.46 -0.84,0.19 -1.609,0.44 -2.26,0.8 -1.08,0.6 -1.89,1.41 -2.43,2.64 -0.36,-3.61 -0.681,-7.3 -0.95,-11.08 0.65,-0.15 1.31,-0.26 1.97,-0.34 -0.64,-0.53 -1.35,-1.01 -2.1,-1.45 -0.17,-2.64 -0.33,-5.32 -0.45,-8.05 3.56,1.43 6.94,3.27 9.97,5.63 1.79,1.4 3.39,3.1 4.65,4.94 z"
           id="path50"
           inkscape:connector-curvature="0"
           style="fill:#efe4b9" /><path
           d="m 159.71,118.85 c 0.55,-0.13 1.1,-0.29 1.62,-0.48 -1.2,2.79 -2.53,5.54 -3.95,8.24 -0.2,0.01 -0.39,0.01 -0.58,0.01 -4.12,0 -8.18,-0.63 -12.149,-1.57 0.649,-2.12 1.26,-4.27 1.819,-6.46 2.54,0.56 5.07,0.91 7.57,0.91 1.899,0 3.78,-0.2 5.67,-0.65 z"
           id="path52"
           inkscape:connector-curvature="0"
           style="fill:#efe4b9" /><path
           d="m 162.32,104.36 c 0.92,0.33 2.14,0.46 3.26,0.46 h 0.02 0.08 c 0.08,0 0.16,0 0.24,0 -0.57,2.33 -1.25,4.63 -2.02,6.91 -1.16,-0.11 -2.341,-0.27 -3.49,-0.51 -2.391,-0.5 -4.69,-1.31 -6.59,-2.65 -1.261,-0.9 -2.341,-2.05 -3.061,-3.48 -0.649,-1.32 -0.99,-2.64 -1,-3.91 0.07,-0.54 0.13,-1.09 0.18,-1.64 0.311,-1.38 1.03,-2.62 2.021,-3.6 1.37,-1.36 3.22,-2.28 5.34,-2.73 1.42,-0.3 2.86,-0.45 4.28,-0.45 2.1,0 4.17,0.32 6.149,0.94 -0.199,2.57 -0.55,5.1 -1.029,7.6 -0.4,-0.41 -0.811,-0.74 -1.24,-0.98 -0.57,-0.31 -1.15,-0.47 -1.83,-0.48 -0.43,0 -0.91,0.07 -1.44,0.24 -0.64,0.2 -1.109,0.52 -1.399,0.86 -0.28,0.34 -0.41,0.69 -0.42,1.11 0,0.26 0.05,0.55 0.2,0.89 0.14,0.33 0.33,0.58 0.619,0.82 0.289,0.23 0.67,0.44 1.13,0.6 z"
           id="path54"
           inkscape:connector-curvature="0"
           style="fill:#efe4b9" /><path
           d="m 184.01,99.89 c -0.17,0.69 -0.35,1.38 -0.55,2.07 -0.11,0.4 -0.23,0.79 -0.35,1.18 -0.04,0.13 -0.08,0.27 -0.131,0.41 -0.09,0.29 -0.18,0.58 -0.279,0.87 -0.38,1.14 -0.8,2.27 -1.25,3.39 -0.15,0.39 -0.311,0.77 -0.48,1.15 -0.06,0.16 -0.13,0.33 -0.21,0.49 -0.09,0.22 -0.189,0.44 -0.29,0.66 -0.109,0.26 -0.229,0.52 -0.35,0.78 -1.63,3.52 -3.58,6.96 -5.78,10.34 -0.05,0.08 -0.1,0.15 -0.16,0.23 -0.34,0.27 -0.689,0.52 -1.05,0.76 -2.76,1.84 -6,3.08 -9.46,3.76 -2.11,0.41 -4.2,0.61 -6.29,0.63 1.42,-2.7 2.75,-5.45 3.95,-8.24 1.85,-0.66 3.5,-1.63 4.8,-2.84 1.17,-1.07 2.05,-2.31 2.6,-3.66 -0.38,0.01 -0.76,0.02 -1.149,0.02 -1.19,0 -2.43,-0.05 -3.68,-0.16 0.77,-2.28 1.449,-4.58 2.02,-6.91 0.91,-0.01 1.8,-0.09 2.71,-0.2 -0.26,-0.7 -0.56,-1.37 -0.93,-1.97 -0.3,-0.51 -0.641,-0.96 -1,-1.35 0.479,-2.5 0.83,-5.03 1.029,-7.6 4.37,1.36 8.271,4.17 10.971,8.16 1.759,-0.65 3.519,-1.33 5.309,-1.97 z"
           id="path56"
           inkscape:connector-curvature="0"
           style="fill:#b5ceba" /><path
           d="m 133.28,121.78 c 0.01,0.04 0.01,0.07 0.01,0.11 0,0.43 -0.021,0.86 -0.07,1.3 -0.24,2.17 -1.09,4.41 -2.52,6.33 -0.03,0.04 -0.07,0.09 -0.101,0.13 0.561,-5 1.061,-10.14 1.46,-15.46 3.38,1.09 6.74,2.3 10.08,3.28 1.45,0.43 2.891,0.81 4.33,1.12 -0.56,2.19 -1.17,4.34 -1.819,6.46 -3.89,-0.91 -7.69,-2.1 -11.37,-3.27 z"
           id="path58"
           inkscape:connector-curvature="0"
           style="fill:#b5ceba" /><path
           d="m 117.7,126.42 c 0.25,2.48 0.529,4.92 0.819,7.33 -1.54,-0.31 -3.1,-0.82 -4.59,-1.5 -2.54,-1.16 -4.859,-2.78 -6.41,-4.82 -0.51,-0.68 -0.939,-1.42 -1.239,-2.2 -0.301,-0.79 -0.471,-1.62 -0.471,-2.49 -0.01,-1.22 0.351,-2.47 1.061,-3.64 0.72,-1.18 1.77,-2.28 3.18,-3.31 1.94,-1.43 4.15,-2.32 6.45,-2.81 0.27,3.78 0.59,7.47 0.95,11.08 0,0.01 -0.011,0.02 -0.011,0.03 -0.189,0.45 -0.31,1.05 -0.31,1.54 0,0.27 0.03,0.51 0.08,0.67 0.04,0.12 0.08,0.18 0.09,0.2 h 0.021 c 0.05,0.01 0.18,-0.01 0.38,-0.08 z"
           id="path60"
           inkscape:connector-curvature="0"
           style="fill:#b5ceba" /><path
           d="m 115.92,103.14 c 0.12,2.73 0.28,5.41 0.45,8.05 -0.771,-0.45 -1.58,-0.85 -2.431,-1.21 -2.739,-1.17 -5.84,-1.9 -8.75,-2.36 -1.18,-0.19 -2.34,-0.28 -3.479,-0.28 -0.65,0 -1.29,0.03 -1.93,0.09 -0.46,-2.72 -0.83,-5.47 -1.101,-8.28 1.07,0.06 2.16,0.17 3.25,0.33 4.711,0.7 9.491,1.85 13.991,3.66 z"
           id="path62"
           inkscape:connector-curvature="0"
           style="fill:#b5ceba" /><path
           d="m 85,112.41 c -0.1,0.05 -0.21,0.1 -0.311,0.15 -3.96,1.97 -7.97,4.13 -12.27,5.64 -0.04,-0.07 -0.09,-0.15 -0.13,-0.22 -0.21,-0.36 -0.42,-0.72 -0.63,-1.08 -0.221,-0.38 -0.431,-0.75 -0.63,-1.12 -0.21,-0.38 -0.41,-0.75 -0.61,-1.13 -0.2,-0.37 -0.4,-0.75 -0.59,-1.12 -0.021,-0.02 -0.03,-0.05 -0.04,-0.07 -0.34,-0.66 -0.66,-1.32 -0.98,-1.98 -0.029,-0.07 -0.069,-0.15 -0.1,-0.22 -0.18,-0.38 -0.35,-0.77 -0.521,-1.15 -0.21,-0.46 -0.42,-0.93 -0.609,-1.4 0.47,-0.17 0.939,-0.35 1.41,-0.54 4.25,-1.69 8.42,-3.89 12.63,-5.83 0.17,-0.08 0.33,-0.15 0.5,-0.22 0.721,3.5 1.691,6.93 2.881,10.29 z"
           id="path64"
           inkscape:connector-curvature="0"
           style="fill:#b5ceba" /></g></g><path
       d="m 124.326,195.014 c -6.637,0 -12.008,-0.969 -12.008,-2.159 0,2.464 4.205,6.267 4.205,11.605 0,1.019 3.49,1.84 7.803,1.84 4.313,0 7.803,-0.821 7.803,-1.84 0,-5.339 4.205,-9.142 4.205,-11.605 0,1.19 -5.371,2.159 -12.008,2.159 z"
       id="path66"
       inkscape:connector-curvature="0"
       style="fill:#94ceaa" /><path
       d="m 211.037,102.656 c -3.969,-4.008 -10.669,-4.438 -16.445,-3.875 -5.848,0.57 -11.07,2.949 -16.51,4.9 -4.243,-7.168 -12.516,-10.686 -20.475,-9.001 -4.972,1.053 -7.877,4.975 -5.502,9.735 2.809,5.631 12.494,6.326 18.643,5.86 -0.818,4.895 -5.212,8.728 -10.691,10.034 -10.35,2.468 -20.533,-2.284 -30.44,-5.324 -1.208,-1.865 -2.834,-3.612 -4.653,-5.034 -6.545,-5.112 -14.977,-7.754 -23.254,-8.986 -6.806,-1.012 -13.319,-0.092 -19.463,2.74 -8.391,3.868 -16.944,8.936 -26.641,8.838 9.572,-9.288 -10.158,-23.462 -17.273,-13.284 -2.748,3.931 0.209,10.209 4.382,13.578 6.575,5.308 15.656,6.778 23.921,5.348 13.479,-2.334 24.247,-14.368 38.796,-12.053 5.97,0.95 12.841,3.01 16.353,7.815 -3.922,-0.023 -7.813,0.814 -10.842,3.045 -10.953,8.062 5.621,17.402 13.279,15.318 4.469,-1.216 7.104,-5.516 7.508,-9.278 0.125,-1.155 0.053,-2.27 -0.156,-3.343 0.217,0.059 0.441,0.115 0.645,0.179 9.954,3.155 20.568,6.711 31.168,4.639 6.574,-1.286 12.246,-4.719 14.805,-10.236 0.939,-2.023 1.281,-3.991 1.182,-5.845 4.794,-1.592 9.346,-3.793 14.251,-5.192 3.972,-1.133 7.641,-0.689 10.054,2.196 2.857,3.417 2.484,8.667 -2.521,11.527 -2.892,1.652 -4.003,1.339 -5.053,-1.095 -0.799,-1.855 0.061,-4.122 2.514,-4.674 1.438,-0.324 3.172,-1.716 1.846,-2.83 -1.43,-1.202 -3.906,-1.039 -5.802,-0.643 -6.901,1.442 -9.487,7.676 -5.603,11.675 5.686,5.852 17.027,2.282 22.428,-3.016 4.532,-4.448 3.086,-10.146 -0.451,-13.718 z m -165.174,0.635 c 0.899,-1.012 2.252,-1.753 3.783,-1.714 4.214,0.106 0.621,4.588 -1.185,5.777 -1.266,0.834 0.066,3.009 1.987,4.482 -0.949,-0.228 -1.914,-0.509 -2.895,-0.86 -4.084,-1.459 -3.789,-5.323 -1.69,-7.685 z m 73.317,24.074 c -3.564,2.13 -4.098,-1.556 -3.118,-3.86 1.335,-3.139 4.351,-4.37 7.673,-4.638 0.22,3.231 -1.49,6.667 -4.555,8.498 z m 40.004,-23.845 c -0.928,-2.209 0.291,-4.16 2.557,-4.871 4.887,-1.533 7.838,3.002 8.82,7.183 -1.643,0.309 -3.304,0.498 -4.988,0.489 -2.442,-0.014 -5.428,-0.511 -6.389,-2.801 z"
       id="path68"
       inkscape:connector-curvature="0"
       style="fill:#94ceaa" /><path
       d="m 209.154,103.329 c -3.415,-3.519 -8.998,-4.083 -14.093,-3.576 -4.008,0.399 -7.948,1.858 -11.642,3.332 -2.251,0.898 -4.482,1.749 -6.74,2.454 -2.155,-6.883 -9.823,-11.798 -17.91,-9.891 -4.455,1.051 -7.006,4.455 -4.852,8.668 2.52,4.927 11.051,5.357 16.309,4.947 0.92,-0.072 1.828,-0.197 2.727,-0.356 0,0.078 0.002,0.157 0,0.233 -0.124,5.898 -5.279,10.57 -11.611,12.126 -10.784,2.649 -21.56,-2.444 -31.726,-5.238 -0.438,-0.12 -0.91,-0.212 -1.374,-0.306 -1.09,-1.995 -2.697,-3.858 -4.596,-5.354 -6.023,-4.744 -13.886,-7.084 -21.525,-8.185 -6.448,-0.929 -12.664,0.113 -18.432,2.817 -11.092,5.203 -22.719,11.966 -35.512,7.473 -5.524,-1.941 -7.076,-7.095 -3.863,-10.644 1.055,-1.165 2.643,-1.876 4.388,-1.822 6.937,0.215 4.456,6.703 1.378,8.771 -1.141,0.766 2.135,3.684 3.291,2.811 9.516,-7.193 -7.044,-20.033 -13.374,-11.036 -2.356,3.35 -0.179,8.531 3.511,11.626 5.796,4.864 14.777,5.56 21.618,4.575 7.163,-1.031 12.993,-4.709 18.806,-7.83 6.738,-3.615 13.316,-5.252 21.053,-4 7.143,1.155 15.771,3.902 19.391,10.272 -4.197,-0.284 -8.565,0.36 -11.735,2.857 -8.597,6.773 2.771,15.116 10.028,13.155 4.092,-1.106 6.595,-5.147 6.996,-8.581 0.185,-1.576 0.021,-3.075 -0.406,-4.493 1.201,0.221 2.367,0.485 3.375,0.804 9.401,2.974 19.406,6.523 29.439,4.624 6.145,-1.163 11.545,-4.307 13.997,-9.487 0.989,-2.091 1.293,-4.195 1.091,-6.188 5.246,-1.574 10.168,-4.034 15.498,-5.534 4.992,-1.406 10.021,-0.924 13.115,2.692 3.261,3.814 2.328,9.435 -3.123,12.582 -8.813,5.087 -12.123,-5.735 -5.034,-7.303 2.815,-0.623 -0.374,-2.078 -1.978,-1.736 -6.072,1.294 -7.945,6.427 -4.585,10.339 4.08,4.75 14.222,1.459 18.519,-2.925 4.126,-4.209 2.747,-9.41 -0.419,-12.673 z m -88.145,25.026 c -4.892,2.969 -8.585,-1.839 -6.914,-5.676 1.874,-4.3 6.613,-5.267 11.336,-5.009 1.046,3.854 -0.606,8.37 -4.422,10.685 z m 44.876,-21.001 c -3.32,-0.013 -7.39,-0.875 -8.646,-3.957 -1.095,-2.686 0.672,-4.883 3.309,-5.697 6.559,-2.025 11.093,3.417 12.174,8.894 -2.225,0.482 -4.496,0.769 -6.837,0.76 z"
       id="path70"
       inkscape:connector-curvature="0"
       style="fill:#e1f1e7" /></g></svg>