<?xml version="1.0" encoding="UTF-8" standalone="no"?>
<!-- Generator: Adobe Illustrator 14.0.0, SVG Export Plug-In . SVG Version: 6.00 Build 43363)  -->

<svg
   xmlns:dc="http://purl.org/dc/elements/1.1/"
   xmlns:cc="http://creativecommons.org/ns#"
   xmlns:rdf="http://www.w3.org/1999/02/22-rdf-syntax-ns#"
   xmlns:svg="http://www.w3.org/2000/svg"
   xmlns="http://www.w3.org/2000/svg"
   xmlns:sodipodi="http://sodipodi.sourceforge.net/DTD/sodipodi-0.dtd"
   xmlns:inkscape="http://www.inkscape.org/namespaces/inkscape"
   version="1.1"
   id="Layer_1"
   x="0px"
   y="0px"
   width="213.96381"
   height="230.97894"
   viewBox="0 0 213.96381 230.97894"
   enable-background="new 0 0 683.815 854.833"
   xml:space="preserve"
   inkscape:version="0.48.4 r9939"
   sodipodi:docname="Curious_Crow.svg"><metadata
     id="metadata51"><rdf:RDF><cc:Work
         rdf:about=""><dc:format>image/svg+xml</dc:format><dc:type
           rdf:resource="http://purl.org/dc/dcmitype/StillImage" /></cc:Work></rdf:RDF></metadata><defs
     id="defs49" /><sodipodi:namedview
     pagecolor="#ffffff"
     bordercolor="#666666"
     borderopacity="1"
     objecttolerance="10"
     gridtolerance="10"
     guidetolerance="10"
     inkscape:pageopacity="0"
     inkscape:pageshadow="2"
     inkscape:window-width="640"
     inkscape:window-height="480"
     id="namedview47"
     showgrid="false"
     fit-margin-top="0"
     fit-margin-left="0"
     fit-margin-right="0"
     fit-margin-bottom="0"
     inkscape:zoom="0.27607731"
     inkscape:cx="270.6905"
     inkscape:cy="-144.11787"
     inkscape:window-x="0"
     inkscape:window-y="27"
     inkscape:window-maximized="0"
     inkscape:current-layer="Layer_1" /><g
     id="g3"
     transform="translate(-71.217,-52.319684)"><path
       d="m 208.625,70.978 c -2.05,-0.77 -4.088,0.284 -5.528,1.709 l 0.005,-0.005 c -7.543,7.443 -16.867,12.906 -22.024,22.163 -0.737,1.322 -3.617,1.269 -4.556,-0.128 -5.809,-8.633 -14.075,-15.387 -22.674,-21.16 -9.447,-6.343 -20.912,-11.295 -28.893,-19.551 l 0.003,0.003 c -3.908,-4.039 -8.805,-0.15 -8.763,4.477 0.055,6.117 2.896,11.497 6.047,16.565 3.051,4.908 6.329,9.778 8.37,15.223 0.595,1.588 3.416,11.116 0,11.722 -0.054,0.003 -0.477,-0.129 -0.477,-0.129 -3.07,-1.417 -7.149,1.003 -6.253,4.596 0.553,2.221 2.24,4.184 4.08,5.948 1.297,1.244 0.613,3.522 -0.955,3.689 -10.276,1.097 -20.168,5.502 -30.455,2.346 H 96.55 c -4.167,-1.291 -7.697,3.762 -5.008,7.195 l 0.042,0.052 c 3.793,4.74 8.923,8.348 13.761,11.932 3.456,2.56 9.015,5.543 10.968,9.581 -2.108,2.195 -1.136,6.208 1.494,7.534 l 0.003,0.001 c 7.615,3.774 0.769,7.209 -4.482,8.689 l -0.005,0.001 c -5.132,1.493 -4.578,7.785 0.194,9.279 l 0.003,0.001 c 6.22,1.93 12.915,1.124 18.815,-1.469 l 0.001,0 c 0.908,-0.401 3.34,-1.483 5.357,-1.766 1.117,-0.157 2.909,0.384 2.351,1.548 l -0.006,0.011 c -1.661,3.148 0.551,7.765 4.466,7.016 l -0.004,0.001 c 8.74,-1.567 16.618,-5.54 20.638,-13.806 1.184,-2.434 2.963,-5.508 3.533,-8.499 l 0.003,0 c 0.784,-3.014 4.745,-10.497 13.988,-5.402 l 0,0 c 0.617,0.39 1.294,0.673 2.03,0.815 l -0.002,0 c 5.744,1.006 10.495,4.986 16.416,5.465 4.539,0.367 8.739,-0.879 8.729,-4.451 -0.002,-0.907 1.867,-3.167 3.321,-3.085 2.373,0.135 4.792,0.21 6.821,-0.697 3.095,-1.384 3.56,-6.122 0.59,-7.944 l -0.015,-0.01 c -6.327,-3.822 8.769,-10.89 11.294,-11.958 l 0.006,-0.003 c 4.988,-2.132 2.669,-8.158 -2.042,-8.459 l 0.011,0 c -4.019,-0.26 -8.738,-0.536 -12.349,-2.521 -4.04,-2.203 0.336,-6.935 2.303,-9.133 l 0.006,-0.007 c 2.808,-3.142 0.308,-7.866 -3.79,-7.487 l 0.005,0 c -7.215,0.643 -8.147,-8.15 -7.552,-13.354 0.457,-4.016 5.971,-14.424 0.181,-16.538 z"
       id="path5"
       inkscape:connector-curvature="0"
       style="fill:#8e421f" /><path
       d="m 229.81,120.02 c -3.36,-0.22 -7.21,-0.45 -10.48,-1.68 -0.22,0.32 -0.43,0.65 -0.65,0.99 -2.5,3.9 -4.91,8.34 -6.97,12.26 -1.03,1.96 -1.96,3.79 -2.76,5.35 -0.8,1.55 -1.47,2.84 -1.94,3.66 -0.24,0.44 -0.76,1.17 -1.48,2.05 -1.26,1.55 -3.13,3.57 -5.35,5.9 -1.78,1.86 -3.8,3.93 -5.95,6.15 2.19,0.93 4.43,1.72 6.87,1.92 4.54,0.37 8.74,-0.87 8.73,-4.45 0,-0.9 1.87,-3.16 3.32,-3.08 2.38,0.13 4.8,0.21 6.83,-0.7 3.09,-1.38 3.55,-6.12 0.58,-7.94 l -0.01,-0.01 c -6.33,-3.82 8.77,-10.89 11.29,-11.96 h 0.01 c 4.99,-2.14 2.67,-8.16 -2.04,-8.46 z"
       id="path7"
       inkscape:connector-curvature="0"
       style="fill:#853e1c" /><path
       d="m 116.69,144.46 c -0.77,0 -1.53,0.02 -2.29,0.05 0.79,0.84 1.45,1.74 1.91,2.69 -1.57,1.64 -1.43,4.28 -0.17,6.07 0.18,-0.01 0.37,-0.01 0.55,-0.01 5.2,0 10.12,1.05 14.64,2.92 l -7.58,13.13 h -13.81 c 0.48,1.48 1.7,2.81 3.58,3.4 2.35,0.73 4.76,1.07 7.17,1.07 3.98,0 7.96,-0.93 11.64,-2.54 h 0.01 c 0.56,-0.25 1.71,-0.76 2.99,-1.18 l 5.02,-8.7 c 1.3,1 2.54,2.08 3.69,3.23 3.28,3.28 5.95,7.13 7.87,11.39 1.64,-0.64 3.21,-1.41 4.68,-2.32 1.04,-0.65 2.03,-1.37 2.96,-2.17 -7.64,-15.99 -23.96,-27.03 -42.86,-27.03 z"
       id="path9"
       inkscape:connector-curvature="0"
       style="fill:#853e1c" /><path
       d="m 232.15,123.532 c -0.257,-0.401 -0.625,-0.678 -1.044,-0.873 -0.421,-0.195 -0.904,-0.309 -1.441,-0.343 h 0.003 c -4.902,-0.317 -9.129,-1.003 -12.007,-2.186 -1.44,-0.588 -2.528,-1.294 -3.222,-2.076 -0.693,-0.788 -1.033,-1.619 -1.04,-2.691 -0.001,-0.97 0.31,-2.163 1.06,-3.591 0.747,-1.427 1.926,-3.077 3.597,-4.944 l 0.002,-0.002 c 0.414,-0.462 0.662,-1.031 0.662,-1.62 0.004,-0.561 -0.242,-1.121 -0.666,-1.493 -0.422,-0.377 -0.989,-0.564 -1.575,-0.563 -0.093,0 -0.187,0.004 -0.283,0.014 l 0.007,-0.001 c -0.299,0.027 -0.596,0.041 -0.89,0.041 -2.561,-0.008 -4.826,-1.003 -6.528,-3.049 -1.696,-2.048 -2.827,-5.217 -2.827,-9.601 -0.001,-3.665 0.794,-8.165 2.685,-13.485 0.243,-0.687 0.371,-1.307 0.372,-1.882 -0.003,-0.505 -0.096,-1.001 -0.408,-1.443 -0.155,-0.218 -0.372,-0.412 -0.625,-0.537 -0.253,-0.127 -0.533,-0.184 -0.797,-0.183 -0.46,0.003 -0.875,0.15 -1.274,0.372 -0.399,0.224 -0.79,0.532 -1.191,0.927 -5.034,4.971 -10.213,8.465 -14.67,12.683 -4.455,4.21 -8.155,9.208 -9.979,16.98 -0.09,0.384 -0.243,0.633 -0.363,0.756 -0.126,0.126 -0.188,0.124 -0.197,0.125 l -0.109,-0.058 c -0.079,-0.064 -0.209,-0.217 -0.328,-0.506 C 173.694,91.204 162.691,82.172 151.597,74.824 146.046,71.15 140.46,67.893 135.515,64.775 130.57,61.66 126.269,58.674 123.301,55.61 l 0.001,10e-4 c -0.608,-0.623 -1.406,-0.859 -2.136,-0.86 -0.573,0.003 -1.133,0.139 -1.627,0.452 -0.246,0.157 -0.476,0.364 -0.656,0.632 -0.179,0.266 -0.302,0.597 -0.326,0.945 -0.039,0.513 -0.058,1.019 -0.058,1.517 -10e-4,2.636 0.534,5.059 1.407,7.372 1.313,3.472 3.368,6.704 5.573,10.207 2.208,3.502 4.573,7.275 6.564,11.807 1.698,3.863 2.374,7.206 2.373,9.844 0.002,2.3 -0.516,4.058 -1.253,5.172 -0.367,0.559 -0.784,0.958 -1.215,1.217 -0.433,0.258 -0.88,0.383 -1.366,0.385 -0.439,0 -0.917,-0.106 -1.434,-0.354 l -0.002,-0.001 c -0.331,-0.156 -0.664,-0.212 -0.987,-0.213 -0.442,0.004 -0.874,0.102 -1.283,0.355 -0.203,0.128 -0.401,0.303 -0.557,0.543 -0.156,0.239 -0.255,0.55 -0.253,0.863 0,0.299 0.083,0.586 0.213,0.835 0.64,1.239 1.595,2.422 2.657,3.57 1.594,1.717 3.447,3.353 4.87,4.763 0.71,0.702 1.312,1.349 1.704,1.881 0.196,0.265 0.339,0.5 0.42,0.681 0.084,0.181 0.101,0.299 0.099,0.332 l 0,0.009 -0.02,0.022 c -0.062,0.07 -0.387,0.261 -1.027,0.383 -0.637,0.128 -1.563,0.207 -2.79,0.206 -0.391,0 -0.813,-0.007 -1.266,-0.023 h 0 c -0.526,-0.019 -1.04,-0.027 -1.543,-0.027 -5.438,-0.001 -9.57,1.035 -13.311,2.042 -3.748,1.01 -7.087,1.974 -11.118,1.973 -2.615,0 -5.538,-0.403 -9.079,-1.492 l -0.001,0 c -0.217,-0.067 -0.439,-0.098 -0.656,-0.098 -0.636,0.002 -1.201,0.258 -1.625,0.655 -0.421,0.396 -0.726,0.968 -0.728,1.633 -0.003,0.489 0.181,0.999 0.515,1.413 1.849,2.314 4.376,4.579 7.129,6.792 4.128,3.316 8.775,6.515 12.35,9.396 1.786,1.438 3.302,2.798 4.332,4.011 0.515,0.605 0.907,1.171 1.157,1.671 0.251,0.5 0.357,0.923 0.356,1.264 -10e-4,0.239 -0.046,0.444 -0.147,0.66 -0.102,0.214 -0.267,0.443 -0.535,0.688 l -0.001,0.001 c -0.244,0.226 -0.373,0.487 -0.449,0.727 -0.076,0.242 -0.101,0.475 -0.102,0.704 0.003,0.467 0.106,0.925 0.309,1.365 0.207,0.432 0.516,0.872 1.059,1.151 l 0.001,0 c 1.921,0.958 3.264,1.961 4.091,2.911 0.829,0.956 1.146,1.817 1.148,2.629 -0.001,0.618 -0.188,1.246 -0.598,1.911 -0.612,0.994 -1.749,2.039 -3.365,2.992 -1.614,0.956 -3.697,1.822 -6.159,2.521 l -0.001,0 c -0.529,0.154 -1.005,0.435 -1.4,0.827 -0.196,0.198 -0.371,0.426 -0.504,0.696 -0.132,0.269 -0.223,0.583 -0.223,0.926 -0.007,0.549 0.26,1.116 0.684,1.508 0.425,0.401 0.979,0.684 1.688,0.907 l 10e-4,0 c 1.753,0.544 3.968,0.978 6.561,0.978 3.072,0.001 6.674,-0.613 10.646,-2.356 2.999,-1.319 5.405,-1.837 7.173,-1.835 1.526,0 2.555,0.378 3.168,0.876 0.61,0.503 0.887,1.116 0.896,1.919 0,0.594 -0.177,1.291 -0.578,2.03 l -0.002,0.004 c -0.229,0.429 -0.322,0.884 -0.323,1.326 0.003,0.522 0.125,1.037 0.431,1.5 0.154,0.229 0.361,0.446 0.631,0.607 0.268,0.162 0.6,0.258 0.935,0.257 0.117,0 0.234,-0.011 0.35,-0.032 l 0.001,0 c 4.577,-0.822 8.073,-2.089 10.792,-3.651 4.082,-2.338 6.374,-5.358 7.89,-8.31 1.517,-2.952 2.321,-5.831 3.467,-7.991 0.275,-0.528 0.37,-1.096 0.371,-1.66 -0.003,-0.877 -0.232,-1.766 -0.644,-2.551 -0.207,-0.392 -0.462,-0.757 -0.782,-1.071 -0.318,-0.313 -0.707,-0.579 -1.173,-0.724 -4.359,-1.349 -8.65,-3.221 -12.83,-5.339 -0.431,-0.218 -0.96,-0.096 -1.251,0.29 -1.632,2.164 -3.465,3.581 -5.382,4.474 -1.917,0.891 -3.928,1.256 -5.906,1.256 -1.468,0 -2.917,-0.202 -4.278,-0.539 h -0.001 c -0.364,-0.088 -0.671,-0.217 -0.885,-0.339 0.237,-0.076 0.581,-0.149 1.036,-0.198 h 10e-4 c 3.153,-0.343 6.997,-1.137 10.191,-3.059 0.465,-0.283 0.727,-0.712 0.875,-1.119 0.149,-0.413 0.202,-0.836 0.203,-1.261 -0.001,-0.602 -0.11,-1.206 -0.324,-1.764 -0.222,-0.55 -0.529,-1.091 -1.139,-1.455 l -0.001,-0.001 c -6.484,-3.684 -12.628,-7.592 -18.33,-10.542 -0.439,-0.227 -0.763,-0.513 -0.958,-0.767 -0.084,-0.105 -0.136,-0.202 -0.173,-0.284 l 0.084,0.006 0.001,0 c 4.857,0.675 10.762,3.439 17.371,6.573 l -0.001,0 c 0.2,0.094 0.531,0.269 0.924,0.423 0.396,0.153 0.864,0.3 1.412,0.303 0.321,0 0.674,-0.057 1.016,-0.212 0.518,-0.231 0.957,-0.687 1.23,-1.26 0.266,-0.547 0.419,-1.209 0.492,-2.03 0.484,-1.62 1.089,-3.596 1.09,-5.943 0.001,-1.75 -0.344,-3.699 -1.294,-5.814 l -0.008,-0.026 0.021,-0.062 c 0.028,-0.058 0.111,-0.153 0.228,-0.221 0.116,-0.069 0.257,-0.108 0.38,-0.107 0.154,0.005 0.279,0.037 0.452,0.197 l 0.001,0.001 c 1.105,1.069 1.896,2.43 2.481,3.993 0.878,2.342 1.268,5.123 1.576,7.845 0.313,2.726 0.539,5.382 1.203,7.578 0.088,0.29 0.302,0.523 0.584,0.636 2.449,0.984 4.968,1.9 7.552,2.683 l 0.003,0.001 c 0.266,0.08 0.538,0.115 0.805,0.115 0.991,-0.009 1.918,-0.453 2.649,-1.155 0.725,-0.702 1.26,-1.721 1.26,-2.909 0,-0.462 -0.082,-0.943 -0.256,-1.42 -4.154,-11.457 -14.77,-36.509 -25.215,-55.098 -0.398,-0.699 -0.559,-1.285 -0.584,-1.626 0.072,0.04 0.151,0.089 0.243,0.158 0.297,0.219 0.684,0.587 1.121,1.124 5.53,6.782 11.774,17.315 17.231,27.548 5.46,10.236 10.15,20.189 12.635,25.857 0.207,0.466 0.451,0.853 0.788,1.158 0.33,0.305 0.794,0.51 1.257,0.505 0.408,0 0.771,-0.141 1.06,-0.327 0.436,-0.283 0.75,-0.666 1.015,-1.095 0.261,-0.431 0.465,-0.918 0.607,-1.437 1.777,-6.496 5.382,-13.242 9.296,-19.717 3.913,-6.479 8.125,-12.685 11.101,-18.202 0.215,-0.402 0.432,-0.703 0.616,-0.908 -0.03,0.389 -0.15,0.962 -0.429,1.7 -1.477,3.927 -3.826,8.56 -6.276,13.582 -2.45,5.023 -5.001,10.441 -6.881,15.994 -0.119,0.353 -0.168,0.712 -0.168,1.063 0.005,0.873 0.284,1.702 0.737,2.39 0.229,0.342 0.507,0.652 0.856,0.896 0.345,0.242 0.782,0.422 1.274,0.423 0.293,0 0.594,-0.067 0.865,-0.196 l 0.002,-0.001 c 2.313,-1.095 4.89,-2.564 7.501,-3.901 2.608,-1.337 5.253,-2.536 7.619,-3.101 h 0.001 c 0.208,-0.05 0.378,-0.068 0.507,-0.068 0.191,0.001 0.279,0.036 0.314,0.055 -0.002,0.053 -0.08,0.293 -0.473,0.501 -3.974,2.105 -7.301,5.129 -10.596,7.667 -1.646,1.271 -3.28,2.421 -4.96,3.293 -1.681,0.873 -3.402,1.469 -5.254,1.66 -0.472,0.048 -0.845,0.422 -0.893,0.894 -0.123,1.22 -0.191,2.438 -0.191,3.653 0,0.237 0.003,0.475 0.008,0.712 0.022,0.624 0.244,1.155 0.523,1.7 0.427,0.808 1.036,1.61 1.664,2.271 0.315,0.33 0.634,0.623 0.957,0.861 0.331,0.235 0.634,0.438 1.101,0.531 2.829,0.496 5.562,1.814 8.367,3.061 2.804,1.238 5.699,2.415 8.9,2.419 1.65,0.001 3.371,-0.323 5.137,-1.099 0.269,-0.117 0.473,-0.349 0.557,-0.63 0.083,-0.281 0.039,-0.587 -0.121,-0.833 -0.632,-0.966 -1.068,-1.773 -1.337,-2.422 -0.271,-0.649 -0.367,-1.135 -0.365,-1.444 0.006,-0.313 0.068,-0.436 0.163,-0.561 0.075,-0.093 0.197,-0.193 0.401,-0.292 0.304,-0.148 0.784,-0.273 1.383,-0.344 0.599,-0.073 1.312,-0.099 2.09,-0.098 1.324,0 2.833,0.072 4.351,0.073 1.34,-0.001 2.688,-0.056 3.95,-0.287 l -0.001,0 c 0.582,-0.1 1.068,-0.468 1.333,-0.888 0.272,-0.422 0.376,-0.879 0.378,-1.319 -0.001,-0.328 -0.06,-0.653 -0.196,-0.968 -0.137,-0.312 -0.361,-0.627 -0.719,-0.849 l -0.005,-0.003 c -1.006,-0.609 -1.707,-1.264 -2.148,-1.921 -0.44,-0.66 -0.638,-1.314 -0.64,-2.029 0,-0.785 0.254,-1.667 0.826,-2.637 0.854,-1.453 2.424,-3.069 4.696,-4.686 2.271,-1.619 5.236,-3.245 8.855,-4.777 l 0.002,-10e-4 c 0.404,-0.173 0.752,-0.399 1.026,-0.713 0.272,-0.309 0.458,-0.733 0.456,-1.173 -0.003,-0.346 -0.114,-0.674 -0.283,-0.94 z"
       id="path11"
       inkscape:connector-curvature="0"
       style="fill:#853e1c" /><path
       d="m 229.602,123.314 c -14.403,-0.944 -23.264,-4.888 -12.292,-17.153 0.86,-0.966 0.288,-2.122 -1.018,-2.001 -8.489,0.769 -15.363,-8.366 -8.592,-27.425 0.925,-2.604 -0.299,-3.655 -2.277,-1.701 -10.229,10.092 -20.807,14.04 -24.38,29.181 -0.445,1.891 -2.139,2.304 -2.895,0.467 -10.497,-25.59 -43.258,-35.687 -55.565,-48.377 -0.946,-0.978 -2.948,-0.581 -3.03,0.548 -0.824,10.827 7.745,17.546 13.404,30.427 5.468,12.447 0.809,19.994 -4.244,17.568 -0.724,-0.345 -2.022,0.104 -1.547,1.023 3.33,6.469 18.009,13.778 3.724,13.28 -15.24,-0.532 -19.988,7.17 -35.311,2.451 -1.087,-0.334 -2.283,0.939 -1.418,2.023 7.992,10.017 30.549,20.345 24.536,25.843 -0.47,0.432 -0.177,1.933 0.589,2.316 10.067,5.03 6.134,11.643 -5.056,14.822 -1.266,0.362 -2.506,2.085 0.268,2.948 3.65,1.132 9.414,1.775 16.509,-1.339 10.375,-4.558 14.396,-0.145 11.94,4.383 -0.494,0.92 -0.058,2.388 0.967,2.201 17.956,-3.228 18.206,-13.288 21.44,-19.434 0.72,-1.367 -0.159,-4.127 -1.638,-4.585 -4.432,-1.372 -8.772,-3.268 -12.986,-5.402 -4.723,6.27 -11.321,6.867 -16.605,5.559 -2.177,-0.537 -3.065,-2.144 0.284,-2.502 3.071,-0.33 6.794,-1.117 9.782,-2.92 0.997,-0.602 0.647,-3.297 -0.364,-3.874 -6.51,-3.7 -12.652,-7.604 -18.295,-10.523 -2.046,-1.059 -2.4,-3.195 -0.446,-2.922 5.102,0.719 11.044,3.53 17.659,6.66 0.989,0.47 3.367,1.873 3.661,-2.076 0.852,-2.844 1.977,-6.44 -0.133,-11.146 -0.552,-1.229 1.429,-2.559 2.682,-1.345 4.959,4.8 3.867,14.412 5.521,19.843 2.429,0.976 4.92,1.881 7.469,2.654 1.627,0.488 4.15,-1.533 3.231,-4.07 -4.13,-11.394 -14.745,-36.441 -25.146,-54.949 -1.684,-2.99 -0.249,-4.746 2.426,-1.466 11.221,13.769 25.013,42.246 30.007,53.636 0.919,2.092 2.35,0.758 2.847,-1.058 3.646,-13.311 14.605,-27.234 20.481,-38.13 1.531,-2.846 3.435,-2.191 2.003,1.618 -3.018,8.017 -9.437,18.584 -13.146,29.545 -0.53,1.564 0.869,3.975 2.191,3.35 4.523,-2.14 10.3,-5.87 15.314,-7.07 2.329,-0.56 2.685,1.479 1.05,2.343 -7.654,4.047 -13.162,11.908 -21.176,12.73 -0.144,1.422 -0.209,2.838 -0.178,4.242 0.031,1.408 2.431,4.227 3.417,4.401 7.586,1.34 13.821,7.962 21.83,4.45 -6.25,-9.567 4.663,-5.688 11.292,-6.905 1.065,-0.194 1.121,-1.777 0.453,-2.188 -7.04,-4.264 -2.523,-11.793 11.717,-17.827 1.54,-0.657 0.926,-2.005 -0.956,-2.124 z"
       id="path13"
       inkscape:connector-curvature="0"
       style="fill:#d94e33" /><path
       d="m 229.6,123.31 c -4.81,-0.32 -9.01,-0.97 -12.05,-2.16 -2.1,3.42 -4.09,7.12 -5.84,10.44 -1.03,1.96 -1.96,3.79 -2.76,5.35 -0.8,1.55 -1.47,2.84 -1.94,3.66 -0.24,0.44 -0.76,1.17 -1.48,2.05 -1.26,1.55 -3.13,3.57 -5.35,5.9 -1.09,1.14 -2.27,2.36 -3.52,3.64 3.3,1.23 6.67,1.82 10.43,0.17 -6.25,-9.57 4.67,-5.69 11.29,-6.91 1.07,-0.19 1.13,-1.78 0.46,-2.19 -7.04,-4.26 -2.53,-11.79 11.72,-17.82 1.54,-0.66 0.92,-2.01 -0.96,-2.13 z"
       id="path15"
       inkscape:connector-curvature="0"
       style="fill:#cf4a30" /><path
       d="m 141.25,151.3 c -2.45,0.4 -4.91,0.19 -7.13,-0.36 -2.17,-0.54 -3.06,-2.15 0.29,-2.5 0.34,-0.04 0.69,-0.08 1.05,-0.12 -5.23,-2.26 -10.95,-3.6 -16.95,-3.82 1.41,1.91 1.7,3.59 0.19,4.97 -0.47,0.43 -0.18,1.93 0.59,2.31 1.23,0.61 2.25,1.25 3.07,1.9 3.13,0.47 6.13,1.32 8.97,2.5 l -7.58,13.13 h -9.87 c 0.18,0.09 0.39,0.17 0.62,0.24 3.65,1.14 9.41,1.78 16.51,-1.33 2.53,-1.11 4.68,-1.69 6.45,-1.85 l 2.89,-5.01 c 1.3,1 2.54,2.08 3.69,3.23 2.51,2.51 4.67,5.36 6.41,8.48 3.34,-1.22 5.76,-2.78 7.58,-4.49 -4.02,-7.1 -9.81,-13.07 -16.78,-17.28 z"
       id="path17"
       inkscape:connector-curvature="0"
       style="fill:#cf4a30" /><path
       d="m 116.695,146.458 c -25.117,0 -45.478,20.363 -45.478,45.479 0,25.116 20.361,45.479 45.478,45.479 25.116,0 45.479,-20.363 45.479,-45.479 0,-25.116 -20.363,-45.479 -45.479,-45.479 z m 28.763,16.717 c 6.654,6.658 10.975,15.606 11.749,25.559 l -18.543,-0.002 -8.209,-14.223 9.283,-16.077 c 2.043,1.409 3.966,2.989 5.72,4.743 z m -28.763,-11.913 c 6.272,0 12.181,1.456 17.483,3.989 l -9.274,16.059 h -16.421 l -9.269,-16.059 c 5.299,-2.533 11.209,-3.989 17.481,-3.989 z m 6.404,40.675 c 0,3.537 -2.868,6.404 -6.404,6.404 -3.535,0 -6.404,-2.867 -6.404,-6.404 0,-3.537 2.869,-6.403 6.404,-6.403 3.535,0 6.404,2.866 6.404,6.403 z M 87.932,163.175 c 1.753,-1.754 3.676,-3.333 5.723,-4.743 l 9.281,16.08 -8.211,14.227 -18.542,0.004 c 0.774,-9.96 5.092,-18.904 11.749,-25.568 z m 0,57.525 c -6.653,-6.659 -10.975,-15.602 -11.75,-25.554 l 18.544,-0.003 8.209,14.222 -9.281,16.08 c -2.046,-1.412 -3.969,-2.993 -5.722,-4.745 z m 28.763,11.912 c -6.272,0 -12.182,-1.456 -17.482,-3.988 l 9.271,-16.06 h 16.424 l 9.271,16.06 c -5.298,2.532 -11.212,3.988 -17.484,3.988 z M 145.458,220.7 c -1.753,1.752 -3.674,3.331 -5.718,4.74 l -9.284,-16.081 8.21,-14.223 18.541,0.004 c -0.775,9.955 -5.095,18.901 -11.749,25.56 z"
       id="path19"
       inkscape:connector-curvature="0"
       style="fill:#574848" /><path
       d="m 159.06,198.56 c -1.21,1.78 -2.37,3.54 -3.49,5.28 -1.86,6.12 -5.12,11.64 -9.45,16.16 -1.67,2.82 -3.46,4.93 -5.6,7.02 -2.74,2.69 -6.04,5.34 -9.5,8.1 17.44,-5.79 30.19,-21.84 31.1,-40.99 -1.05,1.49 -2.07,2.97 -3.06,4.43 z"
       id="path21"
       inkscape:connector-curvature="0"
       style="fill:#4f4241" /><g
       id="g23"><path
         d="m 285.104,120.774 c -2.651,-5.154 -16.679,-9.391 -27.201,-6.186 -6.69,-6.691 -22.942,-5.977 -29.395,-2.157 -6.454,3.828 -15.781,24.147 -18.886,29.642 -3.106,5.499 -19.837,20.081 -31.547,35.378 -11.713,15.293 -22.713,31.068 -28.919,43.265 -6.219,12.185 -24.146,19.835 -33.466,33.458 -9.322,13.628 -10.752,18.883 -2.154,23.186 8.609,4.3 15.062,11.236 44.219,-31.311 5.475,-3.53 18.249,-7.583 27.635,-9.461 0.116,1.473 0.528,3.176 1.542,4.881 2.774,4.637 4.709,15.974 4.925,17.874 0.217,1.908 -3.549,3.302 -5.976,1.377 -2.26,-1.798 -7.257,-0.28 -8.218,3.098 -0.07,0.243 0.165,0.398 0.326,0.249 1.242,-1.163 2.651,-1.12 3.153,-1.056 0.123,0.014 0.22,0.219 0.237,0.307 0.455,2.053 3.036,0.736 4.605,0.321 0.182,-0.045 0.7,0.054 0.803,0.123 2.051,1.359 5.016,0.938 6.137,-0.473 1.172,-1.481 6.348,3.729 8.114,3.525 0.167,-0.021 0.333,-0.011 0.5,0.01 0.215,0.028 0.68,0.84 0.684,1.093 0.005,0.144 0.006,0.273 0.006,0.375 0,2.582 -5.276,3.877 -8.224,0.92 -2.655,-2.656 -9.194,-1.578 -11.288,2.428 -0.232,0.443 0.11,0.88 0.421,0.669 1.43,-0.952 2.846,-0.958 3.676,-0.847 0.455,0.063 0.749,0.599 0.784,0.782 0.535,2.786 4.874,0.842 6.775,0.842 2.493,2.491 6.866,2.469 8.671,0.664 1.807,-1.811 7.935,5.976 10.333,5.976 2.297,0 4.169,3.307 7.489,0.415 0.141,-0.125 0.979,-0.344 1.257,-0.225 1.275,0.555 2.604,2.194 3.298,3.152 0.315,0.431 0.725,0.17 0.815,-0.099 0.351,-1.057 0.491,-2.075 0.36,-3.004 -0.043,-0.327 0.315,-0.797 0.577,-0.75 3.258,0.585 5.204,-1.623 5.204,-3.363 0,-1.157 3.276,-2.919 6.352,-0.854 0.345,0.233 0.777,-0.073 0.618,-0.479 -1.361,-3.515 -4.296,-4.393 -8.263,-2.907 -2.579,0.97 -4.38,0.94 -5.921,0.49 -0.188,-0.055 -0.362,-0.504 -0.294,-0.666 0.212,-0.498 0.216,-0.985 0.065,-1.384 -0.071,-0.178 -0.126,-0.542 0.178,-0.638 0.964,-0.306 3.145,-0.871 4.784,-0.347 0.45,0.143 0.957,0.086 0.314,-0.616 -0.881,-0.956 -2.528,-2.087 -5.397,-2.087 -4.98,0 -10.885,6.354 -15.055,4.507 -1.139,-0.508 -1.994,-2.017 -2.636,-4.047 -0.067,-0.224 0.186,-0.666 0.383,-0.602 0.902,0.279 1.907,1.215 2.525,1.862 0.357,0.374 0.727,0.125 0.774,-0.13 0.147,-0.773 0.149,-1.497 -0.034,-2.146 -0.059,-0.216 0.208,-0.556 0.421,-0.54 2.419,0.129 3.647,-1.643 3.497,-2.916 -0.09,-0.851 2.145,-2.408 4.564,-1.188 0.293,0.148 0.579,-0.16 0.414,-0.472 -1.312,-2.393 -3.525,-2.769 -6.284,-1.357 -2.043,1.047 -3.461,1.092 -4.747,0.781 0.243,-0.442 0.273,-0.89 0.155,-1.24 -0.064,-0.197 -0.023,-0.644 0.448,-0.828 0.812,-0.32 2.111,-0.713 3.164,-0.458 0.299,0.071 0.577,-0.045 0.112,-0.461 -0.715,-0.639 -2.031,-1.371 -4.196,-1.12 -0.707,0.079 -1.421,0.338 -2.136,0.697 -0.234,0.119 -0.748,-0.075 -0.766,-0.302 -0.243,-3.052 -0.347,-5.819 -0.438,-7.396 -0.28,-4.701 0.646,-7.282 0.646,-10.239 0,-2.112 2.463,-4.799 3.582,-8.794 12.938,-6.757 30.374,-19.713 42.24,-39.138 18.403,-30.116 3.349,-43.025 3.349,-50.671 0,-7.65 5.02,-12.909 8.6,-14.342 3.587,-1.434 13.888,0.406 18.65,-4.35 h 2.62 c 0.004,-0.001 0.754,-0.003 0.44,-0.7 z m -87.97,115.038 c -0.209,2.181 -0.031,4.904 1.253,7.758 1.648,3.657 2.65,10.009 3.217,15.404 0.02,0.205 -0.252,0.794 -0.409,0.883 -1.238,0.696 -2.441,1.102 -3.571,0.749 -3.221,-1.006 -4.771,-12.249 -5.376,-15.687 -0.602,-3.438 -0.136,-5.418 -0.393,-7.595 -0.042,-0.41 0.03,-0.858 0.173,-1.363 0.035,-0.12 0.419,-0.39 0.565,-0.398 0.361,-0.018 0.698,-0.028 1.013,-0.028 0.771,0 1.787,-0.15 3.012,-0.449 0.204,-0.05 0.544,0.422 0.516,0.726 z"
         id="path25"
         inkscape:connector-curvature="0"
         style="fill:#423b38" /><g
         id="g27"><path
           d="m 107.97,271.63 c 0.48,2.32 2.3,4.09 5.57,5.73 6.5,3.25 11.78,8.01 26.57,-8.26 -10.88,8.35 -26.55,8.26 -32.14,2.53 z"
           id="path29"
           inkscape:connector-curvature="0"
           style="fill:#403a36" /><path
           d="m 209.21,229.97 c 12.69,-6.62 29.71,-19.22 41.55,-38.03 -10.48,13.93 -27.26,25.31 -40.76,30.06 -13.5,4.75 -45.25,13 -52.25,24.05 5.48,-3.53 18.25,-7.59 27.64,-9.46 0.12,1.47 0.53,3.17 1.54,4.88 2.78,4.63 4.71,15.97 4.93,17.87 0.21,1.91 -3.55,3.3 -5.98,1.38 -2.26,-1.8 -7.26,-0.28 -8.22,3.1 -0.07,0.24 0.17,0.39 0.33,0.25 1.24,-1.17 2.65,-1.12 3.15,-1.06 0.13,0.01 0.22,0.22 0.24,0.31 0.45,2.05 3.04,0.73 4.6,0.32 0.19,-0.05 0.7,0.05 0.81,0.12 2.05,1.36 5.01,0.94 6.13,-0.47 1.18,-1.48 6.35,3.73 8.12,3.52 0.17,-0.02 0.33,-0.01 0.5,0.01 0.21,0.03 0.68,0.84 0.68,1.1 0.01,0.14 0.01,0.27 0.01,0.37 0,2.58 -5.28,3.88 -8.22,0.92 -2.66,-2.65 -9.2,-1.58 -11.29,2.43 -0.23,0.44 0.11,0.88 0.42,0.67 1.43,-0.95 2.84,-0.96 3.67,-0.85 0.46,0.06 0.75,0.6 0.79,0.78 0.53,2.79 4.87,0.85 6.77,0.85 2.5,2.49 6.87,2.47 8.67,0.66 1.81,-1.81 7.94,5.98 10.34,5.98 2.3,0 4.17,3.3 7.49,0.41 0.14,-0.12 0.98,-0.34 1.25,-0.22 1.28,0.55 2.61,2.19 3.3,3.15 0.32,0.43 0.73,0.17 0.82,-0.1 0.35,-1.06 0.49,-2.08 0.36,-3 -0.04,-0.33 0.31,-0.8 0.58,-0.75 3.25,0.58 5.2,-1.63 5.2,-3.37 0,-1.15 3.28,-2.92 6.35,-0.85 0.35,0.23 0.78,-0.07 0.62,-0.48 -1.36,-3.51 -4.3,-4.39 -8.26,-2.91 -2.58,0.97 -4.38,0.94 -5.92,0.49 -0.19,-0.05 -0.37,-0.5 -0.3,-0.66 0.21,-0.5 0.22,-0.99 0.07,-1.39 -0.08,-0.17 -0.13,-0.54 0.17,-0.63 0.97,-0.31 3.15,-0.88 4.79,-0.35 0.45,0.14 0.95,0.08 0.31,-0.62 -0.88,-0.95 -2.53,-2.09 -5.4,-2.09 -4.98,0 -10.88,6.36 -15.05,4.51 -1.14,-0.51 -1.99,-2.02 -2.64,-4.04 -0.06,-0.23 0.19,-0.67 0.39,-0.61 0.9,0.28 1.9,1.22 2.52,1.87 0.36,0.37 0.73,0.12 0.78,-0.13 0.14,-0.78 0.15,-1.5 -0.04,-2.15 -0.06,-0.22 0.21,-0.56 0.42,-0.54 2.42,0.13 3.65,-1.64 3.5,-2.92 -0.09,-0.85 2.15,-2.4 4.57,-1.19 0.29,0.15 0.57,-0.16 0.41,-0.47 -1.31,-2.39 -3.53,-2.77 -6.28,-1.35 -2.05,1.04 -3.47,1.09 -4.75,0.78 0.24,-0.44 0.27,-0.89 0.15,-1.24 -0.06,-0.2 -0.02,-0.65 0.45,-0.83 0.81,-0.32 2.11,-0.71 3.16,-0.46 0.3,0.07 0.58,-0.04 0.12,-0.46 -0.72,-0.64 -2.03,-1.37 -4.2,-1.12 -0.71,0.08 -1.42,0.34 -2.13,0.7 -0.24,0.12 -0.75,-0.08 -0.77,-0.31 -0.24,-3.05 -0.35,-5.82 -0.44,-7.39 -0.28,-4.7 0.65,-7.28 0.65,-10.24 0,-2.11 2.46,-4.8 3.58,-8.8 z m -8.02,29.89 c -1.23,0.69 -2.44,1.1 -3.57,0.74 -3.22,-1 -4.77,-12.24 -5.37,-15.68 -0.6,-3.44 -0.14,-5.42 -0.4,-7.6 -0.04,-0.41 0.03,-0.86 0.18,-1.36 0.03,-0.12 0.42,-0.39 0.56,-0.4 0.36,-0.02 0.7,-0.03 1.02,-0.03 0.77,0 1.78,-0.15 3.01,-0.45 0.2,-0.04 0.54,0.43 0.51,0.73 -0.21,2.18 -0.03,4.91 1.26,7.76 1.65,3.66 2.65,10.01 3.21,15.4 0.02,0.21 -0.25,0.8 -0.41,0.89 z"
           id="path31"
           inkscape:connector-curvature="0"
           style="fill:#403a36" /><path
           d="m 255.06,137.21 c 1.07,-6.04 5.24,-10.14 8.34,-11.39 3.59,-1.43 13.89,0.41 18.65,-4.35 0,0 -24.91,-3.19 -26.99,15.74 z"
           id="path33"
           inkscape:connector-curvature="0"
           style="fill:#403a36" /></g><path
         d="m 141.979,246.048 c -5.735,12.906 -16.967,25.575 -25.334,25.575 m 19.12,-5.258 c 0,0 12.789,-11.232 15.835,-26.292 M 277.263,119.848 c 0,0 -10.754,-0.481 -15.059,1.623 m -9.351,30.882 c -3.377,-8.844 -15.263,-4.065 -20.043,-8.844 -4.781,-4.781 -9.202,-12.313 -12.19,-9.322"
         id="path35"
         inkscape:connector-curvature="0"
         style="fill:none;stroke:#37312e;stroke-linecap:round;stroke-linejoin:round" /></g><path
       d="m 252.731,160.824 c -1.052,-2.039 -2.581,-3.777 -4.458,-5.142 l -0.882,1.213 0.882,-1.213 c -3.399,-2.474 -7.436,-3.475 -11.601,-3.472 -4.278,0.002 -8.727,1.034 -13.016,2.637 -6.432,2.41 -12.509,6.11 -17.044,9.762 -2.268,1.83 -4.148,3.643 -5.506,5.325 -0.679,0.843 -1.23,1.652 -1.632,2.448 -0.201,0.403 -0.368,0.802 -0.487,1.21 -9.832,2.333 -17.556,8.279 -22.869,14.505 -2.75,3.224 -4.862,6.527 -6.305,9.493 -0.721,1.484 -1.275,2.884 -1.655,4.164 -0.378,1.281 -0.59,2.435 -0.592,3.482 0,0.406 0.05,0.794 0.13,1.177 -5.884,1.903 -10.218,5.897 -13.091,9.834 -1.483,2.035 -2.588,4.058 -3.335,5.816 -0.373,0.88 -0.657,1.693 -0.854,2.423 -0.195,0.734 -0.309,1.371 -0.313,1.983 0.001,0.259 0.02,0.517 0.093,0.805 0.076,0.283 0.206,0.624 0.529,0.953 0.118,0.118 0.24,0.206 0.389,0.28 4.014,2.008 8.367,2.883 12.882,2.882 11.448,-0.019 23.972,-5.505 36.119,-12.576 12.139,-7.082 23.895,-15.811 33.55,-22.499 7.331,-5.083 12.476,-10.148 15.815,-14.986 3.336,-4.835 4.873,-9.464 4.874,-13.62 10e-4,-2.515 -0.57,-4.847 -1.623,-6.884 z"
       id="path37"
       inkscape:connector-curvature="0"
       style="fill:#403a36" /><g
       id="g39"><path
         d="m 247.391,156.895 c 9.018,6.561 8.604,22.114 -14.581,38.186 -23.188,16.068 -58.081,43.558 -81.025,32.084 -1.277,-1.274 4.168,-15.753 16.874,-19.504 0.423,-0.123 0.71,-0.817 0.565,-1.259 -1.662,-5.128 9.945,-27.179 31.076,-31.579 0,-6.697 31.313,-29.4 47.091,-17.928 z"
         id="path41"
         inkscape:connector-curvature="0"
         style="fill:#574848" /><path
         d="m 196.61,196.604 c 0,0 -16.386,27.693 -35.987,26.736 m 28.207,-5.737 c 7.648,-3.581 19.119,-22.521 19.119,-22.521 m 20.557,-25.04 c 4.304,4.299 14.581,1.67 16.494,-4.783 m -48.39,17.925 c 7.06,1.199 17.792,-1.909 21.62,-8.361"
         id="path43"
         inkscape:connector-curvature="0"
         style="fill:none;stroke:#463a39;stroke-linecap:round;stroke-linejoin:round" /></g><circle
       cx="247.049"
       cy="117.513"
       r="2.2880001"
       id="circle45"
       sodipodi:cx="247.049"
       sodipodi:cy="117.513"
       sodipodi:rx="2.2880001"
       sodipodi:ry="2.2880001"
       style="fill:#574848"
       d="m 249.337,117.513 c 0,1.26363 -1.02438,2.288 -2.288,2.288 -1.26363,0 -2.288,-1.02437 -2.288,-2.288 0,-1.26363 1.02437,-2.288 2.288,-2.288 1.26362,0 2.288,1.02437 2.288,2.288 z" /></g></svg>