<?xml version="1.0" encoding="UTF-8" standalone="no"?>
<!-- Generator: Adobe Illustrator 14.0.0, SVG Export Plug-In . SVG Version: 6.00 Build 43363)  -->

<svg
   xmlns:dc="http://purl.org/dc/elements/1.1/"
   xmlns:cc="http://creativecommons.org/ns#"
   xmlns:rdf="http://www.w3.org/1999/02/22-rdf-syntax-ns#"
   xmlns:svg="http://www.w3.org/2000/svg"
   xmlns="http://www.w3.org/2000/svg"
   xmlns:sodipodi="http://sodipodi.sourceforge.net/DTD/sodipodi-0.dtd"
   xmlns:inkscape="http://www.inkscape.org/namespaces/inkscape"
   version="1.1"
   id="Layer_2"
   x="0px"
   y="0px"
   width="216"
   height="222"
   viewBox="0 0 216 222"
   enable-background="new 0 0 305 865"
   xml:space="preserve"
   inkscape:version="0.48.4 r9939"
   sodipodi:docname="Retro_Radio.svg"><metadata
     id="metadata29"><rdf:RDF><cc:Work
         rdf:about=""><dc:format>image/svg+xml</dc:format><dc:type
           rdf:resource="http://purl.org/dc/dcmitype/StillImage" /></cc:Work></rdf:RDF></metadata><defs
     id="defs27" /><sodipodi:namedview
     pagecolor="#ffffff"
     bordercolor="#666666"
     borderopacity="1"
     objecttolerance="10"
     gridtolerance="10"
     guidetolerance="10"
     inkscape:pageopacity="0"
     inkscape:pageshadow="2"
     inkscape:window-width="1920"
     inkscape:window-height="1021"
     id="namedview25"
     showgrid="false"
     fit-margin-top="0"
     fit-margin-left="0"
     fit-margin-right="0"
     fit-margin-bottom="0"
     inkscape:zoom="0.77168648"
     inkscape:cx="-467.2664"
     inkscape:cy="-192.01595"
     inkscape:window-x="0"
     inkscape:window-y="27"
     inkscape:window-maximized="1"
     inkscape:current-layer="Layer_2" /><g
     id="g3"
     transform="translate(-36.624943,-25.031245)"><path
       d="m 253.106,160.007 c 0,-1.371 -0.313,-3.199 -3.067,-3.199 0.241,-14.681 -1.081,-26.332 -4.279,-29.53 -2.262,-2.261 -7.585,-3.787 -15.011,-4.757 L 109.937,33.827 c 0.168,-0.577 0.252,-1.202 0.252,-1.839 0,-3.824 -3.09,-6.914 -6.914,-6.914 -3.824,0 -6.914,3.09 -6.914,6.914 0,3.824 3.09,6.914 6.914,6.914 1.058,0 2.068,-0.241 2.97,-0.673 l 106.407,83.02 c -3.521,-0.102 -7.223,-0.15 -11.069,-0.15 -26.729,0.012 -60.288,2.272 -86.284,4.076 -47.495,3.307 -74.813,6.253 -77.254,13.227 -0.529,1.511 -0.924,3.517 -0.93,6.221 -0.016,8.053 3.435,22.308 17.162,48.188 18.336,34.568 34.87,44.789 41.783,47.193 1.461,0.509 4.466,0.909 8.417,1.225 v 4.087 c 0,0.664 0.538,1.202 1.202,1.202 h 116.232 c 0.665,0 1.203,-0.538 1.203,-1.202 v -3.525 c 2.465,-0.379 4.574,-0.863 6.208,-1.485 8.116,-3.077 14.392,-24.986 17.831,-48.769 2.453,0 3.174,-1.455 3.174,-3.247 0,-1.792 0.47,-3.691 -2.26,-3.691 0.276,-2.32 0.529,-4.642 0.745,-6.95 2.333,0 3.029,-1.875 3.029,-3.475 0,-1.6 -0.204,-3.475 -2.439,-3.475 h -0.013 c 0.181,-2.356 0.313,-4.678 0.421,-6.95 3.645,-0.003 3.296,-2.384 3.296,-3.742 z"
       id="path5"
       inkscape:connector-curvature="0"
       style="fill:#8e7841" /><g
       id="g7"><path
         d="m 253.106,160.007 c 0,-1.371 -0.313,-3.199 -3.067,-3.199 0.241,-14.681 -1.081,-26.332 -4.279,-29.53 -4.629,-4.629 -22.063,-6.18 -44.177,-6.18 -26.729,0.012 -60.288,2.272 -86.284,4.076 -47.495,3.307 -74.813,6.253 -77.254,13.227 -0.529,1.511 -0.924,3.517 -0.93,6.221 -0.016,8.053 3.435,22.308 17.162,48.188 18.336,34.568 34.87,44.789 41.783,47.193 1.461,0.509 4.466,0.909 8.417,1.225 v 4.087 c 0,0.664 0.538,1.202 1.202,1.202 h 116.232 c 0.665,0 1.203,-0.538 1.203,-1.202 v -3.525 c 2.465,-0.379 4.574,-0.863 6.208,-1.485 8.116,-3.077 14.392,-24.986 17.831,-48.769 2.453,0 3.174,-1.455 3.174,-3.247 0,-1.792 0.47,-3.691 -2.26,-3.691 0.276,-2.32 0.529,-4.642 0.745,-6.95 2.333,0 3.029,-1.875 3.029,-3.475 0,-1.6 -0.204,-3.475 -2.439,-3.475 h -0.013 c 0.181,-2.356 0.313,-4.678 0.421,-6.95 3.645,-0.002 3.296,-2.383 3.296,-3.741 z M 102.031,147.985 c 4.832,-3.327 10.778,-5.077 17.08,-5.077 6.512,0 12.564,1.988 17.568,5.403 1.548,1.548 -0.397,1.548 -0.397,1.548 H 102.32 c 0,0 -3.011,0 -0.289,-1.874 z m -8.916,8.823 h 51.992 c 1.442,2.141 2.608,4.474 3.474,6.938 h -58.94 c 0.865,-2.465 2.031,-4.798 3.474,-6.938 z m -5.266,17.363 c 0,-1.179 0.061,-2.333 0.192,-3.475 h 62.14 c 0.133,1.142 0.192,2.296 0.192,3.475 0,1.179 -0.06,2.333 -0.192,3.475 h -62.14 c -0.132,-1.142 -0.192,-2.296 -0.192,-3.475 z m 5.266,17.363 c -1.443,-2.141 -2.609,-4.474 -3.475,-6.938 h 58.94 c -0.865,2.465 -2.031,4.798 -3.474,6.938 H 93.115 z m 9.445,6.949 h 32.88 c 0,0 3.854,0.038 1.05,1.676 -5.167,3.017 -10.948,5.274 -17.379,5.274 -6.45,0 -12.45,-1.95 -17.425,-5.306 -2.257,-1.243 0.874,-1.644 0.874,-1.644 z"
         id="path9"
         inkscape:connector-curvature="0"
         style="fill:#f2c2a4" /><path
         d="M 89.944,149.859 H 47.262 m 38.076,6.949 H 48.981 m 2.384,6.938 h 31.229 m -28.478,6.95 H 81.3 m -23.913,6.95 h 23.914 m -20.46,6.95 h 21.752 m 2.743,6.938 h -20.81 m 4.026,6.949 h 21.394 m 5.634,20.024 c 0.621,-1.359 1.479,-2.587 2.518,-3.622 2.237,-2.243 5.366,-3.642 8.786,-3.639 3.419,-0.003 6.548,1.396 8.785,3.639 0.521,0.518 0.994,1.085 1.415,1.692 m 24.749,0.002 c -0.421,-0.608 -0.896,-1.176 -1.416,-1.694 -2.237,-2.243 -5.366,-3.642 -8.785,-3.639 -3.419,-0.003 -6.549,1.396 -8.786,3.639 -0.47,0.469 -0.902,0.977 -1.292,1.52 m 46.13,2.1 c -0.621,-1.357 -1.479,-2.585 -2.517,-3.62 -2.236,-2.243 -5.366,-3.642 -8.785,-3.639 -3.419,-0.003 -6.549,1.396 -8.785,3.639 -0.47,0.469 -0.902,0.977 -1.292,1.52"
         id="path11"
         inkscape:connector-curvature="0"
         style="fill:none;stroke:#ea987b;stroke-width:0.5;stroke-linecap:round;stroke-linejoin:round" /></g><path
       d="m 196.262,131.886 c -23.353,0 -42.285,18.932 -42.285,42.285 0,23.353 18.933,42.285 42.285,42.285 23.352,0 42.284,-18.933 42.284,-42.285 0,-23.352 -18.932,-42.285 -42.284,-42.285 z m 0,64.73 c -12.396,0 -22.445,-10.049 -22.445,-22.445 0,-12.396 10.049,-22.445 22.445,-22.445 12.396,0 22.445,10.049 22.445,22.445 0,12.396 -10.049,22.445 -22.445,22.445 z"
       id="path13"
       inkscape:connector-curvature="0"
       style="fill:#c5a45c" /><path
       d="m 200.369,164.72 -4.112,-16.568 -4.101,16.557 c -3.644,1.588 -6.204,5.231 -6.204,9.463 0,4.232 2.561,7.876 6.204,9.463 l 4.101,16.557 4.112,-16.568 c 3.644,-1.587 6.192,-5.219 6.192,-9.451 0.001,-4.234 -2.548,-7.865 -6.192,-9.453 z"
       id="path15"
       inkscape:connector-curvature="0"
       style="fill:#feeadf" /><circle
       cx="196.26199"
       cy="174.17101"
       r="10.821"
       id="circle17"
       d="m 207.08299,174.17101 c 0,5.97627 -4.84472,10.821 -10.821,10.821 -5.97627,0 -10.821,-4.84473 -10.821,-10.821 0,-5.97628 4.84473,-10.821 10.821,-10.821 5.97628,0 10.821,4.84472 10.821,10.821 z"
       sodipodi:cx="196.26199"
       sodipodi:cy="174.17101"
       sodipodi:rx="10.821"
       sodipodi:ry="10.821"
       style="fill:#8e7841" /><path
       d="m 196.262,141.105 c -18.262,0 -33.066,14.804 -33.066,33.066 0,18.262 14.805,33.066 33.066,33.066 18.261,0 33.065,-14.805 33.065,-33.066 0,-18.261 -14.804,-33.066 -33.065,-33.066 z m 0,60.922 c -15.385,0 -27.856,-12.472 -27.856,-27.856 0,-15.384 12.472,-27.855 27.856,-27.855 15.384,0 27.855,12.471 27.855,27.855 0,15.384 -12.471,27.856 -27.855,27.856 z"
       id="path19"
       inkscape:connector-curvature="0"
       style="fill:#8e7841" /><path
       d="m 115.7,223.67 c 0,4.87 -3.948,8.817 -8.817,8.817 -4.87,0 -8.817,-3.947 -8.817,-8.817 0,-4.869 3.948,-8.817 8.817,-8.817 4.869,0 8.817,3.948 8.817,8.817 z m 40.682,-8.817 c -4.869,0 -8.817,3.948 -8.817,8.817 0,4.87 3.948,8.817 8.817,8.817 4.869,0 8.817,-3.947 8.817,-8.817 0,-4.869 -3.948,-8.817 -8.817,-8.817 z m -15.933,8.817 c 0,4.87 -3.948,8.817 -8.817,8.817 -4.87,0 -8.817,-3.947 -8.817,-8.817 0,-4.869 3.948,-8.817 8.817,-8.817 4.869,0 8.817,3.948 8.817,8.817 z"
       id="path21"
       inkscape:connector-curvature="0"
       style="fill:#feeadf" /><path
       d="m 253.106,160.007 c 0,-1.371 -0.313,-3.199 -3.067,-3.199 0.241,-14.681 -1.081,-26.332 -4.279,-29.53 -4.629,-4.629 -22.063,-6.18 -44.177,-6.18 -26.729,0.012 -60.288,2.272 -86.284,4.076 -47.495,3.307 -74.813,6.253 -77.254,13.227 -0.529,1.511 -0.924,3.517 -0.93,6.221 -0.016,8.053 3.435,22.308 17.162,48.188 18.336,34.568 34.87,44.789 41.783,47.193 1.461,0.509 4.466,0.909 8.417,1.225 v 4.087 c 0,0.664 0.538,1.202 1.202,1.202 h 116.232 c 0.665,0 1.203,-0.538 1.203,-1.202 v -3.525 c 2.465,-0.379 4.574,-0.863 6.208,-1.485 8.116,-3.077 14.392,-24.986 17.831,-48.769 2.453,0 3.174,-1.455 3.174,-3.247 0,-1.792 0.47,-3.691 -2.26,-3.691 0.276,-2.32 0.529,-4.642 0.745,-6.95 2.333,0 3.029,-1.875 3.029,-3.475 0,-1.6 -0.204,-3.475 -2.439,-3.475 h -0.013 c 0.181,-2.356 0.313,-4.678 0.421,-6.95 3.645,-0.002 3.296,-2.383 3.296,-3.741 z"
       id="path23"
       inkscape:connector-curvature="0"
       style="fill:none;stroke:#f4cdb4;stroke-linecap:round;stroke-linejoin:round" /></g></svg>